<svg xmlns="http://www.w3.org/2000/svg" width="21" height="20" viewBox="0 0 21 20" fill="none">
  <path d="M9.66667 3.33332H3.83334C3.39131 3.33332 2.96739 3.50891 2.65483 3.82147C2.34227 4.13403 2.16667 4.55796 2.16667 4.99999V16.6667C2.16667 17.1087 2.34227 17.5326 2.65483 17.8452C2.96739 18.1577 3.39131 18.3333 3.83334 18.3333H15.5C15.942 18.3333 16.366 18.1577 16.6785 17.8452C16.9911 17.5326 17.1667 17.1087 17.1667 16.6667V10.8333M15.9167 2.08332C16.2482 1.7518 16.6978 1.56555 17.1667 1.56555C17.6355 1.56555 18.0852 1.7518 18.4167 2.08332C18.7482 2.41484 18.9344 2.86448 18.9344 3.33332C18.9344 3.80216 18.7482 4.2518 18.4167 4.58332L10.5 12.5L7.16667 13.3333L8 9.99999L15.9167 2.08332Z" stroke="#00A3FF" stroke-width="1.66667" stroke-linecap="round" stroke-linejoin="round"/>
</svg>