<svg xmlns="http://www.w3.org/2000/svg" width="20" height="20" viewBox="0 0 20 20" fill="none">
  <g clip-path="url(#clip0_1226_4655)">
    <path d="M0.833328 3.33335V8.33335M0.833328 8.33335H5.83333M0.833328 8.33335L4.69999 4.70001C5.59562 3.80394 6.70364 3.14935 7.92067 2.79732C9.1377 2.4453 10.4241 2.4073 11.6598 2.68689C12.8954 2.96648 14.0402 3.55454 14.9871 4.39619C15.934 5.23785 16.6524 6.30567 17.075 7.50001M19.1667 16.6667V11.6667M19.1667 11.6667H14.1667M19.1667 11.6667L15.3 15.3C14.4044 16.1961 13.2963 16.8507 12.0793 17.2027C10.8623 17.5547 9.57592 17.5927 8.34023 17.3131C7.10455 17.0335 5.95983 16.4455 5.01288 15.6038C4.06594 14.7622 3.34763 13.6944 2.92499 12.5" stroke="#1D2939" stroke-width="2" stroke-linecap="round" stroke-linejoin="round"/>
  </g>
  <defs>
    <clipPath id="clip0_1226_4655">
      <rect width="20" height="20" fill="white"/>
    </clipPath>
  </defs>
</svg>