<svg width="20" height="20" viewBox="0 0 20 20" fill="none" xmlns="http://www.w3.org/2000/svg">
<g id="refresh-cw" clip-path="url(#clip0_447_5754)">
<path id="Icon" d="M19.1666 3.33335V8.33335M19.1666 8.33335H14.1666M19.1666 8.33335L15.2999 4.70001C14.4043 3.80394 13.2963 3.14935 12.0792 2.79732C10.8622 2.4453 9.57584 2.4073 8.34016 2.68689C7.10447 2.96648 5.95975 3.55454 5.01281 4.39619C4.06586 5.23785 3.34756 6.30567 2.92492 7.50001M0.833252 16.6667V11.6667M0.833252 11.6667H5.83325M0.833252 11.6667L4.69992 15.3C5.59554 16.1961 6.70356 16.8507 7.92059 17.2027C9.13762 17.5547 10.424 17.5927 11.6597 17.3131C12.8954 17.0335 14.0401 16.4455 14.987 15.6038C15.934 14.7622 16.6523 13.6944 17.0749 12.5" stroke="white" stroke-width="2" stroke-linecap="round" stroke-linejoin="round"/>
</g>
<defs>
<clipPath id="clip0_447_5754">
<rect width="20" height="20" fill="white"/>
</clipPath>
</defs>
</svg>
