<svg width="24" height="24" viewBox="0 0 24 24" fill="none" xmlns="http://www.w3.org/2000/svg">
<path d="M7.50586 4.21002L12.0059 6.81002L16.5059 4.21002M7.50586 19.79V14.6L3.00586 12M21.0059 12L16.5059 14.6V19.79M3.27586 6.96002L12.0059 12.01L20.7359 6.96002M12.0059 22.08V12M21.0059 16V8.00002C21.0055 7.6493 20.9129 7.30483 20.7374 7.00119C20.5619 6.69754 20.3096 6.44539 20.0059 6.27002L13.0059 2.27002C12.7018 2.09449 12.3569 2.00208 12.0059 2.00208C11.6548 2.00208 11.3099 2.09449 11.0059 2.27002L4.00586 6.27002C3.70212 6.44539 3.44984 6.69754 3.27432 7.00119C3.0988 7.30483 3.00622 7.6493 3.00586 8.00002V16C3.00622 16.3508 3.0988 16.6952 3.27432 16.9989C3.44984 17.3025 3.70212 17.5547 4.00586 17.73L11.0059 21.73C11.3099 21.9056 11.6548 21.998 12.0059 21.998C12.3569 21.998 12.7018 21.9056 13.0059 21.73L20.0059 17.73C20.3096 17.5547 20.5619 17.3025 20.7374 16.9989C20.9129 16.6952 21.0055 16.3508 21.0059 16Z" stroke="#101828" stroke-width="2" stroke-linecap="round" stroke-linejoin="round"/>
</svg>
