<svg width="24" height="24" viewBox="0 0 24 24" fill="none" xmlns="http://www.w3.org/2000/svg">
<g clip-path="url(#clip0_394_35244)">
<path d="M18.0059 8H19.0059C20.0667 8 21.0841 8.42143 21.8343 9.17157C22.5844 9.92172 23.0059 10.9391 23.0059 12C23.0059 13.0609 22.5844 14.0783 21.8343 14.8284C21.0841 15.5786 20.0667 16 19.0059 16H18.0059M18.0059 8H2.00586V17C2.00586 18.0609 2.42729 19.0783 3.17743 19.8284C3.92758 20.5786 4.94499 21 6.00586 21H14.0059C15.0667 21 16.0841 20.5786 16.8343 19.8284C17.5844 19.0783 18.0059 18.0609 18.0059 17V8ZM6.00586 1V4M10.0059 1V4M14.0059 1V4" stroke="#101828" stroke-width="2" stroke-linecap="round" stroke-linejoin="round"/>
</g>
<defs>
<clipPath id="clip0_394_35244">
<rect width="24" height="24" fill="white" transform="translate(0.00585938)"/>
</clipPath>
</defs>
</svg>
