<svg width="24" height="24" viewBox="0 0 24 24" fill="none" xmlns="http://www.w3.org/2000/svg">
<path d="M12.0059 3V21M12.0059 3H19.0059C19.5363 3 20.045 3.21071 20.4201 3.58579C20.7951 3.96086 21.0059 4.46957 21.0059 5V19C21.0059 19.5304 20.7951 20.0391 20.4201 20.4142C20.045 20.7893 19.5363 21 19.0059 21H12.0059V3ZM12.0059 3H5.00586C4.47543 3 3.96672 3.21071 3.59165 3.58579C3.21657 3.96086 3.00586 4.46957 3.00586 5V19C3.00586 19.5304 3.21657 20.0391 3.59165 20.4142C3.96672 20.7893 4.47543 21 5.00586 21H12.0059V3Z" stroke="#101828" stroke-width="2" stroke-linecap="round" stroke-linejoin="round"/>
</svg>
