<svg width="25" height="24" viewBox="0 0 25 24" fill="none" xmlns="http://www.w3.org/2000/svg">
<path d="M11.8418 3.99998H4.8418C4.31136 3.99998 3.80266 4.2107 3.42758 4.58577C3.05251 4.96084 2.8418 5.46955 2.8418 5.99998V20C2.8418 20.5304 3.05251 21.0391 3.42758 21.4142C3.80266 21.7893 4.31136 22 4.8418 22H18.8418C19.3722 22 19.8809 21.7893 20.256 21.4142C20.6311 21.0391 20.8418 20.5304 20.8418 20V13M19.3418 2.49998C19.7396 2.10216 20.2792 1.87866 20.8418 1.87866C21.4044 1.87866 21.944 2.10216 22.3418 2.49998C22.7396 2.89781 22.9631 3.43737 22.9631 3.99998C22.9631 4.56259 22.7396 5.10216 22.3418 5.49998L12.8418 15L8.8418 16L9.8418 12L19.3418 2.49998Z" stroke="#101828" stroke-width="2" stroke-linecap="round" stroke-linejoin="round"/>
</svg>
