<svg width="25" height="24" viewBox="0 0 25 24" fill="none" xmlns="http://www.w3.org/2000/svg">
<path d="M22.5254 12H2.52539M22.5254 12V18C22.5254 18.5304 22.3147 19.0391 21.9396 19.4142C21.5645 19.7893 21.0558 20 20.5254 20H4.52539C3.99496 20 3.48625 19.7893 3.11118 19.4142C2.7361 19.0391 2.52539 18.5304 2.52539 18V12M22.5254 12L19.0754 5.11C18.9098 4.77679 18.6546 4.49637 18.3383 4.30028C18.0221 4.10419 17.6575 4.0002 17.2854 4H7.76539C7.39331 4.0002 7.02865 4.10419 6.71244 4.30028C6.39622 4.49637 6.14097 4.77679 5.97539 5.11L2.52539 12M6.52539 16H6.53539M10.5254 16H10.5354" stroke="#101828" stroke-width="2" stroke-linecap="round" stroke-linejoin="round"/>
</svg>
