<svg width="25" height="24" viewBox="0 0 25 24" fill="none" xmlns="http://www.w3.org/2000/svg">
<path d="M3.52539 18V12C3.52539 9.61305 4.4736 7.32387 6.16143 5.63604C7.84926 3.94821 10.1384 3 12.5254 3C14.9123 3 17.2015 3.94821 18.8894 5.63604C20.5772 7.32387 21.5254 9.61305 21.5254 12V18M21.5254 19C21.5254 19.5304 21.3147 20.0391 20.9396 20.4142C20.5645 20.7893 20.0558 21 19.5254 21H18.5254C17.995 21 17.4863 20.7893 17.1112 20.4142C16.7361 20.0391 16.5254 19.5304 16.5254 19V16C16.5254 15.4696 16.7361 14.9609 17.1112 14.5858C17.4863 14.2107 17.995 14 18.5254 14H21.5254V19ZM3.52539 19C3.52539 19.5304 3.7361 20.0391 4.11118 20.4142C4.48625 20.7893 4.99496 21 5.52539 21H6.52539C7.05582 21 7.56453 20.7893 7.9396 20.4142C8.31468 20.0391 8.52539 19.5304 8.52539 19V16C8.52539 15.4696 8.31468 14.9609 7.9396 14.5858C7.56453 14.2107 7.05582 14 6.52539 14H3.52539V19Z" stroke="#101828" stroke-width="2" stroke-linecap="round" stroke-linejoin="round"/>
</svg>
