<svg width="25" height="24" viewBox="0 0 25 24" fill="none" xmlns="http://www.w3.org/2000/svg">
<path d="M21.3655 4.60999C20.8548 4.099 20.2483 3.69364 19.5809 3.41708C18.9134 3.14052 18.198 2.99817 17.4755 2.99817C16.753 2.99817 16.0376 3.14052 15.3702 3.41708C14.7027 3.69364 14.0963 4.099 13.5855 4.60999L12.5255 5.66999L11.4655 4.60999C10.4338 3.5783 9.03454 2.9987 7.57551 2.9987C6.11648 2.9987 4.7172 3.5783 3.68551 4.60999C2.65382 5.64169 2.07422 7.04096 2.07422 8.49999C2.07422 9.95903 2.65382 11.3583 3.68551 12.39L4.74551 13.45L12.5255 21.23L20.3055 13.45L21.3655 12.39C21.8765 11.8792 22.2819 11.2728 22.5584 10.6053C22.835 9.93789 22.9773 9.22248 22.9773 8.49999C22.9773 7.77751 22.835 7.0621 22.5584 6.39464C22.2819 5.72718 21.8765 5.12075 21.3655 4.60999V4.60999Z" stroke="#101828" stroke-width="2" stroke-linecap="round" stroke-linejoin="round"/>
</svg>
