<svg width="23" height="22" viewBox="0 0 23 22" fill="none" xmlns="http://www.w3.org/2000/svg">
<path d="M12.4673 9.67828L4.58317 17.5625M5.43403 11.8406L1.57223 10.9284C1.14736 10.828 0.997925 10.3005 1.30571 9.99164L4.37686 6.92049C4.58317 6.71418 4.86307 6.59598 5.15636 6.59375L8.61893 6.56364M12.9803 2.60147C15.5575 4.35897 17.7867 6.58817 19.5442 9.16531M10.3039 16.7116L11.2161 20.5734C11.3165 20.9983 11.844 21.1477 12.1529 20.8399L15.224 17.7688C15.4303 17.5625 15.5485 17.2826 15.5508 16.9893L15.5809 13.5267M20.2054 7.35317L21.1065 3.01743C21.3518 1.83759 20.308 0.793797 19.1282 1.03913L14.7925 1.94018C13.5156 2.20559 12.3447 2.83789 11.4236 3.76012L7.8662 7.31637C6.50905 8.67352 5.62584 10.4332 5.34705 12.3324L5.33478 12.4138C5.15859 13.6259 5.56451 14.8493 6.42987 15.7158C7.29524 16.5811 8.51968 16.987 9.73186 16.8097L9.81327 16.7975C11.7124 16.5198 13.4721 15.6355 14.8293 14.2783L18.3855 10.7221C19.3077 9.80095 19.94 8.63003 20.2054 7.35317Z" stroke="#101828" stroke-width="2" stroke-linecap="round" stroke-linejoin="round"/>
</svg>
