<svg width="24" height="24" viewBox="0 0 24 24" fill="none" xmlns="http://www.w3.org/2000/svg">
<path d="M1 1.00305L23 23.0031M16.72 11.0631C17.5391 11.4628 18.305 11.9633 19 12.5531M5 12.5531C6.48208 11.3139 8.26587 10.4893 10.17 10.1631M10.71 5.05305C12.8524 4.88042 15.0076 5.14122 17.047 5.81987C19.0865 6.49853 20.9682 7.58113 22.58 9.00305M1.42 9.00305C2.80717 7.7769 4.3977 6.80228 6.12 6.12305M8.53 16.1131C9.5452 15.3918 10.7597 15.0043 12.005 15.0043C13.2503 15.0043 14.4648 15.3918 15.48 16.1131M12 20.0031H12.01" stroke="#101828" stroke-width="2" stroke-linecap="round" stroke-linejoin="round"/>
</svg>
