<svg width="20" height="20" viewBox="0 0 20 20" fill="none" xmlns="http://www.w3.org/2000/svg">
<path d="M6 1.00305V4.00305C6 4.53348 5.78929 5.04219 5.41421 5.41727C5.03914 5.79234 4.53043 6.00305 4 6.00305H1M19 6.00305H16C15.4696 6.00305 14.9609 5.79234 14.5858 5.41727C14.2107 5.04219 14 4.53348 14 4.00305V1.00305M14 19.0031V16.0031C14 15.4726 14.2107 14.9639 14.5858 14.5888C14.9609 14.2138 15.4696 14.0031 16 14.0031H19M1 14.0031H4C4.53043 14.0031 5.03914 14.2138 5.41421 14.5888C5.78929 14.9639 6 15.4726 6 16.0031V19.0031" stroke="#101828" stroke-width="2" stroke-linecap="round" stroke-linejoin="round"/>
</svg>
