<svg width="22" height="22" viewBox="0 0 22 22" fill="none" xmlns="http://www.w3.org/2000/svg">
<path d="M12.3181 3.2253C12.3192 1.99751 9.81565 1.00305 6.73089 1.00305C3.64614 1.00305 1.14481 1.99862 1.14258 3.2253M1.14258 3.2253C1.14258 4.45309 3.64391 5.44754 6.73089 5.44754C9.81788 5.44754 12.3192 4.45309 12.3192 3.2253L12.3192 11.8475M1.14258 3.2253V16.5587C1.1437 17.7865 3.64503 18.7809 6.7309 18.7809C8.22745 18.7809 9.5787 18.5443 10.5812 18.1632M1.1437 7.66977C1.1437 8.89756 3.64503 9.89201 6.73202 9.89201C9.819 9.89201 12.3203 8.89756 12.3203 7.66977M10.6483 13.6977C9.64017 14.0921 8.25762 14.3366 6.7309 14.3366C3.64503 14.3366 1.1437 13.3421 1.1437 12.1143M18.6698 12.4677C20.6335 14.4199 20.6335 17.5866 18.6698 19.5389C16.706 21.4911 13.5207 21.4911 11.557 19.5389C9.59323 17.5866 9.59323 14.4199 11.557 12.4677C13.5207 10.5154 16.706 10.5154 18.6698 12.4677Z" stroke="#101828" stroke-width="2" stroke-linecap="round" stroke-linejoin="round"/>
</svg>
