<svg width="25" height="20" viewBox="0 0 25 20" fill="none" xmlns="http://www.w3.org/2000/svg">
<path d="M16.9004 14.0031V1.00305H1.90039V14.0031H16.9004ZM16.9004 14.0031H23.9004V9.00305L20.9004 6.00305H16.9004V14.0031ZM8.90039 16.5031C8.90039 17.8838 7.7811 19.0031 6.40039 19.0031C5.01968 19.0031 3.90039 17.8838 3.90039 16.5031C3.90039 15.1223 5.01968 14.0031 6.40039 14.0031C7.7811 14.0031 8.90039 15.1223 8.90039 16.5031ZM21.9004 16.5031C21.9004 17.8838 20.7811 19.0031 19.4004 19.0031C18.0197 19.0031 16.9004 17.8838 16.9004 16.5031C16.9004 15.1223 18.0197 14.0031 19.4004 14.0031C20.7811 14.0031 21.9004 15.1223 21.9004 16.5031Z" stroke="#101828" stroke-width="2" stroke-linecap="round" stroke-linejoin="round"/>
</svg>
