<svg width="22" height="22" viewBox="0 0 22 22" fill="none" xmlns="http://www.w3.org/2000/svg">
<path d="M13.5 9.00305C12.67 9.00305 12 8.33305 12 7.50305V2.50305C12 1.67305 12.67 1.00305 13.5 1.00305C14.33 1.00305 15 1.67305 15 2.50305V7.50305C15 8.33305 14.33 9.00305 13.5 9.00305Z" stroke="#101828" stroke-width="2" stroke-linecap="round" stroke-linejoin="round"/>
<path d="M19.5 9.00305H18V7.50305C18 6.67305 18.67 6.00305 19.5 6.00305C20.33 6.00305 21 6.67305 21 7.50305C21 8.33305 20.33 9.00305 19.5 9.00305Z" stroke="#101828" stroke-width="2" stroke-linecap="round" stroke-linejoin="round"/>
<path d="M8.5 13.0031C9.33 13.0031 10 13.6731 10 14.5031V19.5031C10 20.3331 9.33 21.0031 8.5 21.0031C7.67 21.0031 7 20.3331 7 19.5031V14.5031C7 13.6731 7.67 13.0031 8.5 13.0031Z" stroke="#101828" stroke-width="2" stroke-linecap="round" stroke-linejoin="round"/>
<path d="M2.5 13.0031H4V14.5031C4 15.3331 3.33 16.0031 2.5 16.0031C1.67 16.0031 1 15.3331 1 14.5031C1 13.6731 1.67 13.0031 2.5 13.0031Z" stroke="#101828" stroke-width="2" stroke-linecap="round" stroke-linejoin="round"/>
<path d="M13 13.5031C13 12.6731 13.67 12.0031 14.5 12.0031H19.5C20.33 12.0031 21 12.6731 21 13.5031C21 14.3331 20.33 15.0031 19.5 15.0031H14.5C13.67 15.0031 13 14.3331 13 13.5031Z" stroke="#101828" stroke-width="2" stroke-linecap="round" stroke-linejoin="round"/>
<path d="M14.5 18.0031H13V19.5031C13 20.3331 13.67 21.0031 14.5 21.0031C15.33 21.0031 16 20.3331 16 19.5031C16 18.6731 15.33 18.0031 14.5 18.0031Z" stroke="#101828" stroke-width="2" stroke-linecap="round" stroke-linejoin="round"/>
<path d="M9 8.50305C9 7.67305 8.33 7.00305 7.5 7.00305H2.5C1.67 7.00305 1 7.67305 1 8.50305C1 9.33305 1.67 10.0031 2.5 10.0031H7.5C8.33 10.0031 9 9.33305 9 8.50305Z" stroke="#101828" stroke-width="2" stroke-linecap="round" stroke-linejoin="round"/>
<path d="M7.5 4.00305H9V2.50305C9 1.67305 8.33 1.00305 7.5 1.00305C6.67 1.00305 6 1.67305 6 2.50305C6 3.33305 6.67 4.00305 7.5 4.00305Z" stroke="#101828" stroke-width="2" stroke-linecap="round" stroke-linejoin="round"/>
</svg>
