<svg width="22" height="17" viewBox="0 0 22 17" fill="none" xmlns="http://www.w3.org/2000/svg">
<path d="M15.2379 3.83305C15.7957 4.39029 16.2383 5.05202 16.5402 5.78041C16.8422 6.5088 16.9976 7.28956 16.9976 8.07805C16.9976 8.86654 16.8422 9.64731 16.5402 10.3757C16.2383 11.1041 15.7957 11.7658 15.2379 12.3231M6.75786 12.3131C6.20001 11.7558 5.75745 11.0941 5.45551 10.3657C5.15356 9.63731 4.99814 8.85654 4.99814 8.06805C4.99814 7.27956 5.15356 6.4988 5.45551 5.77041C5.75745 5.04202 6.20001 4.38029 6.75786 3.82305M18.0679 1.00305C19.9426 2.87833 20.9957 5.42141 20.9957 8.07305C20.9957 10.7247 19.9426 13.2678 18.0679 15.1431M3.92786 15.1431C2.05315 13.2678 1 10.7247 1 8.07305C1 5.42141 2.05315 2.87833 3.92786 1.00305M12.9979 8.07305C12.9979 9.17762 12.1024 10.0731 10.9979 10.0731C9.8933 10.0731 8.99786 9.17762 8.99786 8.07305C8.99786 6.96848 9.8933 6.07305 10.9979 6.07305C12.1024 6.07305 12.9979 6.96848 12.9979 8.07305Z" stroke="#101828" stroke-width="2" stroke-linecap="round" stroke-linejoin="round"/>
</svg>
