<svg width="23" height="22" viewBox="0 0 23 22" fill="none" xmlns="http://www.w3.org/2000/svg">
<path d="M20.5405 14.8931C19.9043 16.3975 18.9093 17.7233 17.6424 18.7544C16.3755 19.7854 14.8753 20.4905 13.2729 20.8078C11.6706 21.1252 10.0149 21.0452 8.45063 20.5748C6.88635 20.1045 5.46111 19.2581 4.2995 18.1097C3.13789 16.9613 2.2753 15.5458 1.78712 13.987C1.29894 12.4282 1.20004 10.7735 1.49908 9.16769C1.79812 7.56183 2.48598 6.05368 3.50253 4.77508C4.51908 3.49648 5.83336 2.48637 7.33048 1.83305M21.3305 11.0031C21.3305 9.68983 21.0718 8.38947 20.5693 7.17622C20.0667 5.96296 19.3301 4.86057 18.4016 3.93198C17.473 3.0034 16.3706 2.2668 15.1573 1.76426C13.9441 1.26171 12.6437 1.00305 11.3305 1.00305V11.0031H21.3305Z" stroke="#101828" stroke-width="2" stroke-linecap="round" stroke-linejoin="round"/>
</svg>
