<svg width="20" height="20" viewBox="0 0 20 20" fill="none" xmlns="http://www.w3.org/2000/svg">
<path d="M4 1V13M4 13C2.34315 13 1 14.3431 1 16C1 17.6569 2.34315 19 4 19C5.65685 19 7 17.6569 7 16M4 13C5.65685 13 7 14.3431 7 16M16 7C17.6569 7 19 5.65685 19 4C19 2.34315 17.6569 1 16 1C14.3431 1 13 2.34315 13 4C13 5.65685 14.3431 7 16 7ZM16 7C16 9.38695 15.0518 11.6761 13.364 13.364C11.6761 15.0518 9.38695 16 7 16" stroke="#101828" stroke-width="2" stroke-linecap="round" stroke-linejoin="round"/>
</svg>
