<svg width="21" height="22" viewBox="0 0 21 22" fill="none" xmlns="http://www.w3.org/2000/svg">
<path d="M5.88672 10V6C5.88672 4.67392 6.4135 3.40215 7.35118 2.46447C8.28887 1.52678 9.56064 1 10.8867 1C12.2128 1 13.4846 1.52678 14.4223 2.46447C15.3599 3.40215 15.8867 4.67392 15.8867 6V10M3.88672 10H17.8867C18.9913 10 19.8867 10.8954 19.8867 12V19C19.8867 20.1046 18.9913 21 17.8867 21H3.88672C2.78215 21 1.88672 20.1046 1.88672 19V12C1.88672 10.8954 2.78215 10 3.88672 10Z" stroke="#101828" stroke-width="2" stroke-linecap="round" stroke-linejoin="round"/>
</svg>
