<svg width="22" height="20" viewBox="0 0 22 20" fill="none" xmlns="http://www.w3.org/2000/svg">
<path d="M20.994 2.00111V8.00111M20.994 8.00111H14.994M20.994 8.00111L16.364 3.64111C14.9846 2.26085 13.194 1.3663 11.262 1.09226C9.32995 0.818213 7.36119 1.17953 5.65237 2.12175C3.94356 3.06398 2.58727 4.53606 1.78788 6.31618C0.988498 8.0963 0.789328 10.088 1.22039 11.9912C1.65144 13.8943 2.68938 15.6058 4.17778 16.8678C5.66617 18.1297 7.5244 18.8737 9.47244 18.9877C11.4205 19.1017 13.3528 18.5794 14.9782 17.4996C16.6036 16.4198 17.834 14.841 18.484 13.0011" stroke="#101828" stroke-width="2" stroke-linecap="round" stroke-linejoin="round"/>
</svg>
