<svg width="20" height="20" viewBox="0 0 20 20" fill="none" xmlns="http://www.w3.org/2000/svg">
<path d="M16.0059 1C15.2102 1 14.4471 1.31607 13.8845 1.87868C13.3219 2.44129 13.0059 3.20435 13.0059 4V16C13.0059 16.7956 13.3219 17.5587 13.8845 18.1213C14.4471 18.6839 15.2102 19 16.0059 19C16.8015 19 17.5646 18.6839 18.1272 18.1213C18.6898 17.5587 19.0059 16.7956 19.0059 16C19.0059 15.2044 18.6898 14.4413 18.1272 13.8787C17.5646 13.3161 16.8015 13 16.0059 13H4.00586C3.21021 13 2.44715 13.3161 1.88454 13.8787C1.32193 14.4413 1.00586 15.2044 1.00586 16C1.00586 16.7956 1.32193 17.5587 1.88454 18.1213C2.44715 18.6839 3.21021 19 4.00586 19C4.80151 19 5.56457 18.6839 6.12718 18.1213C6.68979 17.5587 7.00586 16.7956 7.00586 16V4C7.00586 3.20435 6.68979 2.44129 6.12718 1.87868C5.56457 1.31607 4.80151 1 4.00586 1C3.21021 1 2.44715 1.31607 1.88454 1.87868C1.32193 2.44129 1.00586 3.20435 1.00586 4C1.00586 4.79565 1.32193 5.55871 1.88454 6.12132C2.44715 6.68393 3.21021 7 4.00586 7H16.0059C16.8015 7 17.5646 6.68393 18.1272 6.12132C18.6898 5.55871 19.0059 4.79565 19.0059 4C19.0059 3.20435 18.6898 2.44129 18.1272 1.87868C17.5646 1.31607 16.8015 1 16.0059 1Z" stroke="#101828" stroke-width="2" stroke-linecap="round" stroke-linejoin="round"/>
</svg>
