<svg width="23" height="22" viewBox="0 0 23 22" fill="none" xmlns="http://www.w3.org/2000/svg">
<path d="M21.3295 15.9231V18.9231C21.3307 19.2017 21.2736 19.4773 21.162 19.7325C21.0505 19.9877 20.8868 20.2167 20.6816 20.405C20.4764 20.5933 20.2341 20.7366 19.9703 20.8259C19.7064 20.9151 19.4269 20.9482 19.1495 20.9231C16.0724 20.5888 13.1165 19.5373 10.5195 17.8531C8.10335 16.3178 6.05486 14.2693 4.51952 11.8531C2.8295 9.24435 1.77777 6.27414 1.44952 3.18315C1.42453 2.90662 1.4574 2.62791 1.54602 2.36477C1.63465 2.10164 1.77709 1.85984 1.96429 1.65477C2.15148 1.4497 2.37933 1.28586 2.63331 1.17367C2.8873 1.06148 3.16186 1.00341 3.43952 1.00315H6.43952C6.92483 0.998372 7.39531 1.17023 7.76328 1.48668C8.13125 1.80314 8.3716 2.2426 8.43952 2.72315C8.56615 3.68322 8.80097 4.62588 9.13952 5.53315C9.27407 5.89107 9.30319 6.28006 9.22343 6.65403C9.14367 7.02799 8.95839 7.37126 8.68952 7.64315L7.41952 8.91315C8.84308 11.4167 10.916 13.4896 13.4195 14.9131L14.6895 13.6431C14.9614 13.3743 15.3047 13.189 15.6786 13.1092C16.0526 13.0295 16.4416 13.0586 16.7995 13.1931C17.7068 13.5317 18.6495 13.7665 19.6095 13.8931C20.0953 13.9617 20.5389 14.2064 20.8561 14.5806C21.1732 14.9549 21.3417 15.4327 21.3295 15.9231Z" stroke="#101828" stroke-width="2" stroke-linecap="round" stroke-linejoin="round"/>
</svg>
