<svg width="22" height="20" viewBox="0 0 22 20" fill="none" xmlns="http://www.w3.org/2000/svg">
<path d="M7 8.00305L11 12.0031L15 8.00305M3 1.00305H19C19.5304 1.00305 20.0391 1.21377 20.4142 1.58884C20.7893 1.96391 21 2.47262 21 3.00305V9.00305C21 11.6552 19.9464 14.1988 18.0711 16.0741C16.1957 17.9495 13.6522 19.0031 11 19.0031C9.68678 19.0031 8.38642 18.7444 7.17317 18.2418C5.95991 17.7393 4.85752 17.0027 3.92893 16.0741C2.05357 14.1988 1 11.6552 1 9.00305V3.00305C1 2.47262 1.21071 1.96391 1.58579 1.58884C1.96086 1.21377 2.46957 1.00305 3 1.00305Z" stroke="#101828" stroke-width="2" stroke-linecap="round" stroke-linejoin="round"/>
</svg>
