<svg width="25" height="24" viewBox="0 0 25 24" fill="none" xmlns="http://www.w3.org/2000/svg">
<path d="M5.74273 12.8131C4.05859 10.2161 3.00709 7.26022 2.67273 4.18305C2.64774 3.90652 2.68061 3.62781 2.76923 3.36468C2.85786 3.10154 3.00031 2.85974 3.1875 2.65467C3.3747 2.4496 3.60254 2.28576 3.85653 2.17357C4.11051 2.06139 4.38507 2.00331 4.66273 2.00305H7.66273C8.14804 1.99828 8.61853 2.17013 8.9865 2.48658C9.35447 2.80304 9.59481 3.2425 9.66273 3.72305C9.78936 4.68312 10.0242 5.62578 10.3627 6.53305C10.4973 6.89098 10.5264 7.27997 10.4466 7.65393C10.3669 8.0279 10.1816 8.37116 9.91273 8.64305L8.64273 9.91305M23.5527 1.00305L1.55273 23.0031M11.2327 13.3131C12.2476 14.3288 13.3946 15.2033 14.6427 15.9131L15.9127 14.6431C16.1846 14.3742 16.5279 14.1889 16.9019 14.1091C17.2758 14.0294 17.6648 14.0585 18.0227 14.1931C18.93 14.5316 19.8727 14.7664 20.8327 14.8931C21.3133 14.961 21.7527 15.2013 22.0692 15.5693C22.3857 15.9373 22.5575 16.4077 22.5527 16.8931V19.8931C22.5539 20.1716 22.4968 20.4472 22.3852 20.7024C22.2737 20.9576 22.11 21.1866 21.9048 21.3749C21.6996 21.5632 21.4573 21.7065 21.1935 21.7958C20.9297 21.885 20.6501 21.9181 20.3727 21.8931C17.2956 21.5587 14.3397 20.5072 11.7427 18.8231C10.538 18.0581 9.42126 17.1627 8.41273 16.1531L11.2327 13.3131Z" stroke="#101828" stroke-width="2" stroke-linecap="round" stroke-linejoin="round"/>
</svg>
