<svg width="23" height="18" viewBox="0 0 23 18" fill="none" xmlns="http://www.w3.org/2000/svg">
<path d="M8.75016 1.59303C8.98246 1.35935 9.26891 1.18668 9.58403 1.09038C9.89915 0.994073 10.2332 0.97712 10.5564 1.04103C10.8797 1.10493 11.1821 1.24771 11.4369 1.45668C11.6917 1.66565 11.8909 1.93432 12.0168 2.23883C12.1427 2.54333 12.1914 2.87423 12.1586 3.2021C12.1258 3.52997 12.0125 3.84466 11.8288 4.11819C11.6451 4.39173 11.3966 4.61563 11.1055 4.77C10.8144 4.92437 10.4897 5.00442 10.1602 5.00303H1.16016M11.7502 16.413C11.9825 16.6467 12.2689 16.8194 12.584 16.9157C12.8991 17.012 13.2332 17.0289 13.5564 16.965C13.8797 16.9011 14.1821 16.7584 14.4369 16.5494C14.6917 16.3404 14.8909 16.0717 15.0168 15.7672C15.1427 15.4627 15.1914 15.1318 15.1586 14.804C15.1258 14.4761 15.0125 14.1614 14.8288 13.8879C14.6451 13.6143 14.3966 13.3904 14.1055 13.2361C13.8144 13.0817 13.4897 13.0017 13.1602 13.003H1.16016M16.8902 4.73303C17.181 4.44292 17.5389 4.22895 17.9321 4.11005C18.3253 3.99114 18.7418 3.97097 19.1446 4.05132C19.5475 4.13167 19.9244 4.31005 20.2419 4.5707C20.5594 4.83135 20.8078 5.16623 20.9651 5.54573C21.1224 5.92522 21.1838 6.33763 21.1438 6.74648C21.1038 7.15533 20.9637 7.54803 20.7358 7.88983C20.5079 8.23164 20.1993 8.51202 19.8373 8.70618C19.4753 8.90034 19.071 9.0023 18.6602 9.00303H1.16016" stroke="#101828" stroke-width="2" stroke-linecap="round" stroke-linejoin="round"/>
</svg>
