<svg width="25" height="24" viewBox="0 0 25 24" fill="none" xmlns="http://www.w3.org/2000/svg">
<path d="M10.7418 4.24C11.4301 4.07888 12.1349 3.99834 12.8418 4C19.8418 4 23.8418 12 23.8418 12C23.2348 13.1356 22.5109 14.2047 21.6818 15.19M14.9618 14.12C14.6871 14.4147 14.3559 14.6512 13.9879 14.8151C13.62 14.9791 13.2227 15.0673 12.8199 15.0744C12.4171 15.0815 12.017 15.0074 11.6434 14.8565C11.2699 14.7056 10.9305 14.481 10.6456 14.1962C10.3608 13.9113 10.1362 13.5719 9.98531 13.1984C9.83442 12.8248 9.76032 12.4247 9.76743 12.0219C9.77454 11.6191 9.86271 11.2218 10.0267 10.8538C10.1906 10.4859 10.427 10.1546 10.7218 9.88M1.8418 1L23.8418 23M18.7818 17.94C17.0724 19.243 14.9909 19.9649 12.8418 20C5.8418 20 1.8418 12 1.8418 12C3.08569 9.6819 4.81093 7.65661 6.9018 6.06L18.7818 17.94Z" stroke="#101828" stroke-width="2" stroke-linecap="round" stroke-linejoin="round"/>
</svg>
