<svg width="25" height="23" viewBox="0 0 25 23" fill="none" xmlns="http://www.w3.org/2000/svg">
<path d="M23.1423 13.5025L12.4923 21.2425L1.84233 13.5025C1.69956 13.3975 1.59365 13.25 1.53977 13.0812C1.48588 12.9124 1.48678 12.7308 1.54233 12.5625L2.76233 8.78251L5.20233 1.27251C5.226 1.21132 5.26367 1.15652 5.31233 1.11251C5.39157 1.04013 5.49501 1 5.60233 1C5.70965 1 5.81309 1.04013 5.89233 1.11251C5.94371 1.16217 5.98158 1.22413 6.00233 1.29251L8.44233 8.78251H16.5423L18.9823 1.27251C19.006 1.21132 19.0437 1.15652 19.0923 1.11251C19.1716 1.04013 19.275 1 19.3823 1C19.4897 1 19.5931 1.04013 19.6723 1.11251C19.7237 1.16217 19.7616 1.22413 19.7823 1.29251L22.2223 8.80251L23.4923 12.5625C23.5429 12.736 23.5361 12.9211 23.473 13.0905C23.41 13.2598 23.294 13.4043 23.1423 13.5025V13.5025Z" stroke="#101828" stroke-width="2" stroke-linecap="round" stroke-linejoin="round"/>
</svg>
