<svg width="20" height="20" viewBox="0 0 20 20" fill="none" xmlns="http://www.w3.org/2000/svg">
<path d="M7 16.0031V3.00305L19 1.00305V14.0031M7 16.0031C7 17.6599 5.65685 19.0031 4 19.0031C2.34315 19.0031 1 17.6599 1 16.0031C1 14.3462 2.34315 13.0031 4 13.0031C5.65685 13.0031 7 14.3462 7 16.0031ZM19 14.0031C19 15.6599 17.6569 17.0031 16 17.0031C14.3431 17.0031 13 15.6599 13 14.0031C13 12.3462 14.3431 11.0031 16 11.0031C17.6569 11.0031 19 12.3462 19 14.0031Z" stroke="#101828" stroke-width="2" stroke-linecap="round" stroke-linejoin="round"/>
</svg>
