<svg width="23" height="22" viewBox="0 0 23 22" fill="none" xmlns="http://www.w3.org/2000/svg">
<path d="M8.61539 8C8.85049 7.33167 9.31454 6.76811 9.92535 6.40913C10.5361 6.05016 11.2543 5.91894 11.9526 6.03871C12.6508 6.15849 13.2842 6.52152 13.7405 7.06353C14.1967 7.60553 14.4464 8.29152 14.4454 9C14.4454 11 11.4454 12 11.4454 12M11.5254 16H11.5354M21.5254 11C21.5254 16.5228 17.0482 21 11.5254 21C6.00254 21 1.52539 16.5228 1.52539 11C1.52539 5.47715 6.00254 1 11.5254 1C17.0482 1 21.5254 5.47715 21.5254 11Z" stroke="#101828" stroke-width="2" stroke-linecap="round" stroke-linejoin="round"/>
</svg>
