<svg width="22" height="22" viewBox="0 0 22 22" fill="none" xmlns="http://www.w3.org/2000/svg">
<path d="M6.17188 21.0031H3.17188C2.64144 21.0031 2.13273 20.7923 1.75766 20.4173C1.38259 20.0422 1.17188 19.5335 1.17188 19.0031V12.0031C1.17187 11.4726 1.38259 10.9639 1.75766 10.5888C2.13273 10.2138 2.64144 10.0031 3.17188 10.0031H6.17188M13.1719 8.00305V4.00305C13.1719 3.2074 12.8558 2.44434 12.2932 1.88173C11.7306 1.31912 10.9675 1.00305 10.1719 1.00305L6.17188 10.0031V21.0031H17.4519C17.9342 21.0085 18.4023 20.8395 18.7698 20.5271C19.1373 20.2147 19.3796 19.78 19.4519 19.3031L20.8319 10.3031C20.8754 10.0164 20.856 9.72373 20.7752 9.4453C20.6944 9.16687 20.554 8.90935 20.3637 8.69057C20.1735 8.47179 19.938 8.29698 19.6734 8.17827C19.4089 8.05956 19.1218 7.99977 18.8319 8.00305H13.1719Z" stroke="#101828" stroke-width="2" stroke-linecap="round" stroke-linejoin="round"/>
</svg>
