<svg width="23" height="23" viewBox="0 0 23 23" fill="none" xmlns="http://www.w3.org/2000/svg">
<path d="M13.9381 5.00305C14.9149 5.19362 15.8125 5.67131 16.5162 6.37499C17.2199 7.07867 17.6976 7.97632 17.8881 8.95305M13.9381 1.00305C15.9674 1.22849 17.8597 2.13723 19.3044 3.58006C20.749 5.02289 21.6601 6.91406 21.8881 8.94305M20.8881 16.9231V19.9231C20.8892 20.2016 20.8322 20.4772 20.7206 20.7324C20.6091 20.9876 20.4454 21.2166 20.2402 21.4049C20.035 21.5932 19.7927 21.7365 19.5289 21.8258C19.265 21.915 18.9855 21.9481 18.7081 21.9231C15.631 21.5887 12.6751 20.5372 10.0781 18.8531C7.66194 17.3177 5.61345 15.2692 4.07812 12.8531C2.38809 10.2443 1.33636 7.27405 1.00812 4.18305C0.983127 3.90652 1.01599 3.62781 1.10462 3.36468C1.19324 3.10154 1.33569 2.85974 1.52288 2.65467C1.71008 2.4496 1.93792 2.28576 2.19191 2.17357C2.44589 2.06139 2.72046 2.00331 2.99812 2.00305H5.99812C6.48342 1.99828 6.95391 2.17013 7.32188 2.48658C7.68985 2.80304 7.93019 3.2425 7.99812 3.72305C8.12474 4.68312 8.35957 5.62578 8.69812 6.53305C8.83266 6.89098 8.86178 7.27997 8.78202 7.65393C8.70227 8.0279 8.51698 8.37116 8.24812 8.64305L6.97812 9.91305C8.40167 12.4166 10.4746 14.4895 12.9781 15.9131L14.2481 14.6431C14.52 14.3742 14.8633 14.1889 15.2372 14.1091C15.6112 14.0294 16.0002 14.0585 16.3581 14.1931C17.2654 14.5316 18.2081 14.7664 19.1681 14.8931C19.6539 14.9616 20.0975 15.2063 20.4146 15.5805C20.7318 15.9548 20.9003 16.4326 20.8881 16.9231Z" stroke="#101828" stroke-width="2" stroke-linecap="round" stroke-linejoin="round"/>
</svg>
