<svg width="23" height="21" viewBox="0 0 23 21" fill="none" xmlns="http://www.w3.org/2000/svg">
<path d="M15.8867 7C17.478 7 19.0041 7.63214 20.1294 8.75736C21.2546 9.88258 21.8867 11.4087 21.8867 13V20H17.8867V13C17.8867 12.4696 17.676 11.9609 17.3009 11.5858C16.9259 11.2107 16.4172 11 15.8867 11C15.3563 11 14.8476 11.2107 14.4725 11.5858C14.0974 11.9609 13.8867 12.4696 13.8867 13V20H9.88672V13C9.88672 11.4087 10.5189 9.88258 11.6441 8.75736C12.7693 7.63214 14.2954 7 15.8867 7Z" stroke="#101828" stroke-width="2" stroke-linecap="round" stroke-linejoin="round"/>
<path d="M5.88672 8H1.88672V20H5.88672V8Z" stroke="#101828" stroke-width="2" stroke-linecap="round" stroke-linejoin="round"/>
<path d="M3.88672 5C4.99129 5 5.88672 4.10457 5.88672 3C5.88672 1.89543 4.99129 1 3.88672 1C2.78215 1 1.88672 1.89543 1.88672 3C1.88672 4.10457 2.78215 5 3.88672 5Z" stroke="#101828" stroke-width="2" stroke-linecap="round" stroke-linejoin="round"/>
</svg>
