<svg width="18" height="22" viewBox="0 0 18 22" fill="none" xmlns="http://www.w3.org/2000/svg">
<path d="M9 5.00305H9.01M3 1.00305H15C16.1046 1.00305 17 1.89848 17 3.00305V19.0031C17 20.1076 16.1046 21.0031 15 21.0031H3C1.89543 21.0031 1 20.1076 1 19.0031V3.00305C1 1.89848 1.89543 1.00305 3 1.00305ZM13 13.0031C13 15.2122 11.2091 17.0031 9 17.0031C6.79086 17.0031 5 15.2122 5 13.0031C5 10.7939 6.79086 9.00305 9 9.00305C11.2091 9.00305 13 10.7939 13 13.0031Z" stroke="#101828" stroke-width="2" stroke-linecap="round" stroke-linejoin="round"/>
</svg>
