<svg width="24" height="23" viewBox="0 0 24 23" fill="none" xmlns="http://www.w3.org/2000/svg">
<path d="M22.5522 1.00305L16.5522 7.00305M16.5522 1.00305L22.5522 7.00305M21.5522 16.9231V19.9231C21.5533 20.2016 21.4963 20.4772 21.3847 20.7324C21.2731 20.9876 21.1095 21.2166 20.9043 21.4049C20.699 21.5932 20.4568 21.7365 20.1929 21.8258C19.9291 21.915 19.6496 21.9481 19.3722 21.9231C16.295 21.5887 13.3392 20.5372 10.7422 18.8531C8.32601 17.3177 6.27752 15.2692 4.74218 12.8531C3.05216 10.2443 2.00042 7.27405 1.67218 4.18305C1.64719 3.90652 1.68005 3.62781 1.76868 3.36468C1.85731 3.10154 1.99975 2.85974 2.18695 2.65467C2.37414 2.4496 2.60198 2.28576 2.85597 2.17357C3.10996 2.06139 3.38452 2.00331 3.66218 2.00305H6.66218C7.14749 1.99828 7.61797 2.17013 7.98594 2.48658C8.35391 2.80304 8.59426 3.2425 8.66218 3.72305C8.7888 4.68312 9.02363 5.62578 9.36218 6.53305C9.49672 6.89098 9.52584 7.27997 9.44609 7.65393C9.36633 8.0279 9.18104 8.37116 8.91218 8.64305L7.64218 9.91305C9.06573 12.4166 11.1386 14.4895 13.6422 15.9131L14.9122 14.6431C15.1841 14.3742 15.5273 14.1889 15.9013 14.1091C16.2753 14.0294 16.6643 14.0585 17.0222 14.1931C17.9295 14.5316 18.8721 14.7664 19.8322 14.8931C20.3179 14.9616 20.7616 15.2063 21.0787 15.5805C21.3958 15.9548 21.5643 16.4326 21.5522 16.9231Z" stroke="#101828" stroke-width="2" stroke-linecap="round" stroke-linejoin="round"/>
</svg>
