<svg width="23" height="22" viewBox="0 0 23 22" fill="none" xmlns="http://www.w3.org/2000/svg">
<path d="M11.1719 21.0031C16.6947 21.0031 21.1719 16.5259 21.1719 11.0031C21.1719 5.4802 16.6947 1.00305 11.1719 1.00305C5.64903 1.00305 1.17188 5.4802 1.17188 11.0031C1.17188 16.5259 5.64903 21.0031 11.1719 21.0031Z" stroke="#101828" stroke-width="2" stroke-linecap="round" stroke-linejoin="round"/>
<path d="M11.1719 17.0031C14.4856 17.0031 17.1719 14.3168 17.1719 11.0031C17.1719 7.68934 14.4856 5.00305 11.1719 5.00305C7.85817 5.00305 5.17188 7.68934 5.17188 11.0031C5.17188 14.3168 7.85817 17.0031 11.1719 17.0031Z" stroke="#101828" stroke-width="2" stroke-linecap="round" stroke-linejoin="round"/>
<path d="M11.1719 13.0031C12.2764 13.0031 13.1719 12.1076 13.1719 11.0031C13.1719 9.89848 12.2764 9.00305 11.1719 9.00305C10.0673 9.00305 9.17188 9.89848 9.17188 11.0031C9.17188 12.1076 10.0673 13.0031 11.1719 13.0031Z" stroke="#101828" stroke-width="2" stroke-linecap="round" stroke-linejoin="round"/>
</svg>
