<svg width="24" height="20" viewBox="0 0 24 20" fill="none" xmlns="http://www.w3.org/2000/svg">
<path d="M16 19.0031V17.0031C16 15.9422 15.5786 14.9248 14.8284 14.1746C14.0783 13.4245 13.0609 13.0031 12 13.0031H5C3.93913 13.0031 2.92172 13.4245 2.17157 14.1746C1.42143 14.9248 1 15.9422 1 17.0031V19.0031M20 6.00305V12.0031M23 9.00305H17M12.5 5.00305C12.5 7.21219 10.7091 9.00305 8.5 9.00305C6.29086 9.00305 4.5 7.21219 4.5 5.00305C4.5 2.79391 6.29086 1.00305 8.5 1.00305C10.7091 1.00305 12.5 2.79391 12.5 5.00305Z" stroke="#101828" stroke-width="2" stroke-linecap="round" stroke-linejoin="round"/>
</svg>
