<svg width="19" height="4" viewBox="0 0 19 4" fill="none" xmlns="http://www.w3.org/2000/svg">
<path d="M9.96094 3.00305C10.5132 3.00305 10.9609 2.55534 10.9609 2.00305C10.9609 1.45077 10.5132 1.00305 9.96094 1.00305C9.40865 1.00305 8.96094 1.45077 8.96094 2.00305C8.96094 2.55534 9.40865 3.00305 9.96094 3.00305Z" stroke="#101828" stroke-width="2" stroke-linecap="round" stroke-linejoin="round"/>
<path d="M16.9609 3.00305C17.5132 3.00305 17.9609 2.55534 17.9609 2.00305C17.9609 1.45077 17.5132 1.00305 16.9609 1.00305C16.4087 1.00305 15.9609 1.45077 15.9609 2.00305C15.9609 2.55534 16.4087 3.00305 16.9609 3.00305Z" stroke="#101828" stroke-width="2" stroke-linecap="round" stroke-linejoin="round"/>
<path d="M2.96094 3.00305C3.51322 3.00305 3.96094 2.55534 3.96094 2.00305C3.96094 1.45077 3.51322 1.00305 2.96094 1.00305C2.40865 1.00305 1.96094 1.45077 1.96094 2.00305C1.96094 2.55534 2.40865 3.00305 2.96094 3.00305Z" stroke="#101828" stroke-width="2" stroke-linecap="round" stroke-linejoin="round"/>
</svg>
