<svg width="20" height="20" viewBox="0 0 20 20" fill="none" xmlns="http://www.w3.org/2000/svg">
<path d="M18.9618 10.7931C18.8045 12.4953 18.1657 14.1175 17.1201 15.4698C16.0744 16.8222 14.6653 17.8488 13.0575 18.4296C11.4497 19.0103 9.7098 19.1212 8.04132 18.7491C6.37283 18.3771 4.84481 17.5376 3.63604 16.3288C2.42727 15.1201 1.58775 13.592 1.21572 11.9236C0.843691 10.2551 0.954531 8.51514 1.53528 6.90735C2.11602 5.29956 3.14265 3.89042 4.49503 2.8448C5.84741 1.79919 7.46961 1.16036 9.17182 1.00305C8.17523 2.35132 7.69566 4.0125 7.82035 5.68447C7.94503 7.35643 8.66568 8.92811 9.85122 10.1137C11.0368 11.2992 12.6084 12.0198 14.2804 12.1445C15.9524 12.2692 17.6135 11.7896 18.9618 10.7931Z" stroke="#101828" stroke-width="2" stroke-linecap="round" stroke-linejoin="round"/>
</svg>
