<svg width="24" height="24" viewBox="0 0 24 24" fill="none" xmlns="http://www.w3.org/2000/svg">
<path d="M10.66 5.00305H14C14.5304 5.00305 15.0391 5.21377 15.4142 5.58884C15.7893 5.96391 16 6.47262 16 7.00305V10.3431L17 11.3431L23 7.00305V17.0031M1 1.00305L23 23.0031M16 16.0031V17.0031C16 17.5335 15.7893 18.0422 15.4142 18.4173C15.0391 18.7923 14.5304 19.0031 14 19.0031H3C2.46957 19.0031 1.96086 18.7923 1.58579 18.4173C1.21071 18.0422 1 17.5335 1 17.0031V7.00305C1 6.47262 1.21071 5.96391 1.58579 5.58884C1.96086 5.21377 2.46957 5.00305 3 5.00305H5L16 16.0031Z" stroke="#101828" stroke-width="2" stroke-linecap="round" stroke-linejoin="round"/>
</svg>
