<svg width="16" height="24" viewBox="0 0 16 24" fill="none" xmlns="http://www.w3.org/2000/svg">
<path d="M8 9.00307V12.0031L9.5 13.5031M12.51 17.3531L12.16 21.1831C12.1149 21.6817 11.8845 22.1453 11.5142 22.4823C11.1439 22.8193 10.6607 23.0051 10.16 23.0031H5.83C5.32933 23.0051 4.84611 22.8193 4.4758 22.4823C4.1055 22.1453 3.87506 21.6817 3.83 21.1831L3.48 17.3531M3.49 6.65307L3.84 2.82307C3.88491 2.32615 4.11393 1.86395 4.48211 1.52722C4.8503 1.19049 5.33105 1.00354 5.83 1.00307H10.18C10.6807 1.00104 11.1639 1.18687 11.5342 1.52384C11.9045 1.86082 12.1349 2.32442 12.18 2.82307L12.53 6.65307M15 12.0031C15 15.8691 11.866 19.0031 8 19.0031C4.13401 19.0031 1 15.8691 1 12.0031C1 8.13707 4.13401 5.00307 8 5.00307C11.866 5.00307 15 8.13707 15 12.0031Z" stroke="#101828" stroke-width="2" stroke-linecap="round" stroke-linejoin="round"/>
</svg>
