<svg width="12" height="24" viewBox="0 0 12 24" fill="none" xmlns="http://www.w3.org/2000/svg">
<path d="M8.17188 14.7631V3.50305C8.17188 2.84001 7.90848 2.20413 7.43964 1.73528C6.9708 1.26644 6.33492 1.00305 5.67188 1.00305C5.00883 1.00305 4.37295 1.26644 3.90411 1.73528C3.43527 2.20413 3.17188 2.84001 3.17188 3.50305V14.7631C2.36915 15.2994 1.7602 16.0797 1.43495 16.9886C1.1097 17.8976 1.0854 18.8871 1.36563 19.811C1.64587 20.7348 2.21579 21.544 2.99121 22.1191C3.76664 22.6942 4.70646 23.0047 5.67188 23.0047C6.63729 23.0047 7.57711 22.6942 8.35254 22.1191C9.12796 21.544 9.69788 20.7348 9.97812 19.811C10.2584 18.8871 10.2341 17.8976 9.9088 16.9886C9.58355 16.0797 8.9746 15.2994 8.17188 14.7631Z" stroke="#101828" stroke-width="2" stroke-linecap="round" stroke-linejoin="round"/>
</svg>
