<svg width="22" height="20" viewBox="0 0 22 20" fill="none" xmlns="http://www.w3.org/2000/svg">
<path d="M1 1.99372V7.99372M1 7.99372H7M1 7.99372L5.64 3.63372C7.02091 2.25514 8.81245 1.36269 10.7447 1.09084C12.6769 0.818986 14.6451 1.18246 16.3528 2.12649C18.0605 3.07052 19.4152 4.54397 20.2126 6.32482C21.0101 8.10568 21.2072 10.0975 20.7742 12.0001C20.3413 13.9027 19.3017 15.6131 17.8121 16.8735C16.3226 18.1339 14.4637 18.8761 12.5157 18.9882C10.5677 19.1003 8.63598 18.5763 7.01166 17.4951C5.38734 16.4139 4.15839 14.8341 3.51 12.9937" stroke="#101828" stroke-width="2" stroke-linecap="round" stroke-linejoin="round"/>
</svg>
