<svg width="24" height="23" viewBox="0 0 24 23" fill="none" xmlns="http://www.w3.org/2000/svg">
<path d="M18.7768 1.00305L22.7768 5.00305M22.7768 5.00305L18.7768 9.00305M22.7768 5.00305H14.7768M21.7768 16.9231V19.9231C21.7779 20.2016 21.7209 20.4772 21.6093 20.7324C21.4977 20.9876 21.3341 21.2166 21.1289 21.4049C20.9236 21.5932 20.6814 21.7365 20.4175 21.8258C20.1537 21.915 19.8742 21.9481 19.5968 21.9231C16.5196 21.5887 13.5638 20.5372 10.9668 18.8531C8.55062 17.3177 6.50212 15.2692 4.96679 12.8531C3.27677 10.2443 2.22503 7.27405 1.89679 4.18305C1.8718 3.90652 1.90466 3.62781 1.99329 3.36468C2.08191 3.10154 2.22436 2.85974 2.41155 2.65467C2.59875 2.4496 2.82659 2.28576 3.08058 2.17357C3.33457 2.06139 3.60913 2.00331 3.88679 2.00305H6.88679C7.3721 1.99828 7.84258 2.17013 8.21055 2.48658C8.57852 2.80304 8.81887 3.2425 8.88679 3.72305C9.01341 4.68312 9.24824 5.62578 9.58679 6.53305C9.72133 6.89098 9.75045 7.27997 9.6707 7.65393C9.59094 8.0279 9.40565 8.37116 9.13679 8.64305L7.86679 9.91305C9.29034 12.4166 11.3632 14.4895 13.8668 15.9131L15.1368 14.6431C15.4087 14.3742 15.7519 14.1889 16.1259 14.1091C16.4999 14.0294 16.8889 14.0585 17.2468 14.1931C18.1541 14.5316 19.0967 14.7664 20.0568 14.8931C20.5426 14.9616 20.9862 15.2063 21.3033 15.5805C21.6205 15.9548 21.789 16.4326 21.7768 16.9231Z" stroke="#101828" stroke-width="2" stroke-linecap="round" stroke-linejoin="round"/>
</svg>
