<svg width="19" height="20" viewBox="0 0 19 20" fill="none" xmlns="http://www.w3.org/2000/svg">
<path d="M17.9941 2.00305L6.11414 13.8831M12.4641 12.4831L17.9941 18.0031M6.11414 6.12305L9.99414 10.0031M6.99414 4.00305C6.99414 5.65991 5.65099 7.00305 3.99414 7.00305C2.33729 7.00305 0.994141 5.65991 0.994141 4.00305C0.994141 2.3462 2.33729 1.00305 3.99414 1.00305C5.65099 1.00305 6.99414 2.3462 6.99414 4.00305ZM6.99414 16.0031C6.99414 17.6599 5.65099 19.0031 3.99414 19.0031C2.33729 19.0031 0.994141 17.6599 0.994141 16.0031C0.994141 14.3462 2.33729 13.0031 3.99414 13.0031C5.65099 13.0031 6.99414 14.3462 6.99414 16.0031Z" stroke="#101828" stroke-width="2" stroke-linecap="round" stroke-linejoin="round"/>
</svg>
