<svg width="22" height="22" viewBox="0 0 22 22" fill="none" xmlns="http://www.w3.org/2000/svg">
<path d="M4.99414 5.00305H5.00414M4.99414 17.0031H5.00414M2.99414 1.00305H18.9941C20.0987 1.00305 20.9941 1.89848 20.9941 3.00305V7.00305C20.9941 8.10762 20.0987 9.00305 18.9941 9.00305H2.99414C1.88957 9.00305 0.994141 8.10762 0.994141 7.00305V3.00305C0.994141 1.89848 1.88957 1.00305 2.99414 1.00305ZM2.99414 13.0031H18.9941C20.0987 13.0031 20.9941 13.8985 20.9941 15.0031V19.0031C20.9941 20.1076 20.0987 21.0031 18.9941 21.0031H2.99414C1.88957 21.0031 0.994141 20.1076 0.994141 19.0031V15.0031C0.994141 13.8985 1.88957 13.0031 2.99414 13.0031Z" stroke="#101828" stroke-width="2" stroke-linecap="round" stroke-linejoin="round"/>
</svg>
