<svg width="23" height="22" viewBox="0 0 23 22" fill="none" xmlns="http://www.w3.org/2000/svg">
<path d="M21.5254 11C21.5254 16.5228 17.0482 21 11.5254 21M21.5254 11C21.5254 5.47715 17.0482 1 11.5254 1M21.5254 11H1.52539M11.5254 21C6.00254 21 1.52539 16.5228 1.52539 11M11.5254 21C14.0267 18.2616 15.4481 14.708 15.5254 11C15.4481 7.29203 14.0267 3.73835 11.5254 1M11.5254 21C9.02411 18.2616 7.60264 14.708 7.52539 11C7.60264 7.29203 9.02411 3.73835 11.5254 1M1.52539 11C1.52539 5.47715 6.00254 1 11.5254 1" stroke="#101828" stroke-width="2" stroke-linecap="round" stroke-linejoin="round"/>
</svg>
