<svg width="5" height="18" viewBox="0 0 5 18" fill="none" xmlns="http://www.w3.org/2000/svg">
<path d="M2.96094 10.0031C3.51322 10.0031 3.96094 9.55534 3.96094 9.00305C3.96094 8.45077 3.51322 8.00305 2.96094 8.00305C2.40865 8.00305 1.96094 8.45077 1.96094 9.00305C1.96094 9.55534 2.40865 10.0031 2.96094 10.0031Z" stroke="#101828" stroke-width="2" stroke-linecap="round" stroke-linejoin="round"/>
<path d="M2.96094 3.00305C3.51322 3.00305 3.96094 2.55534 3.96094 2.00305C3.96094 1.45077 3.51322 1.00305 2.96094 1.00305C2.40865 1.00305 1.96094 1.45077 1.96094 2.00305C1.96094 2.55534 2.40865 3.00305 2.96094 3.00305Z" stroke="#101828" stroke-width="2" stroke-linecap="round" stroke-linejoin="round"/>
<path d="M2.96094 17.0031C3.51322 17.0031 3.96094 16.5553 3.96094 16.0031C3.96094 15.4508 3.51322 15.0031 2.96094 15.0031C2.40865 15.0031 1.96094 15.4508 1.96094 16.0031C1.96094 16.5553 2.40865 17.0031 2.96094 17.0031Z" stroke="#101828" stroke-width="2" stroke-linecap="round" stroke-linejoin="round"/>
</svg>
