<svg width="15" height="18" viewBox="0 0 15 18" fill="none" xmlns="http://www.w3.org/2000/svg">
<path d="M1 9H9C10.0609 9 11.0783 8.57857 11.8284 7.82843C12.5786 7.07828 13 6.06087 13 5C13 3.93913 12.5786 2.92172 11.8284 2.17157C11.0783 1.42143 10.0609 1 9 1H1V9ZM1 9H10C11.0609 9 12.0783 9.42143 12.8284 10.1716C13.5786 10.9217 14 11.9391 14 13C14 14.0609 13.5786 15.0783 12.8284 15.8284C12.0783 16.5786 11.0609 17 10 17H1V9Z" stroke="#101828" stroke-width="2" stroke-linecap="round" stroke-linejoin="round"/>
</svg>
