<svg width="25" height="24" viewBox="0 0 25 24" fill="none" xmlns="http://www.w3.org/2000/svg">
<path d="M22.7506 16.95C23.0728 16.1893 23.2015 15.3606 23.1252 14.5381C23.0488 13.7155 22.7699 12.9246 22.3132 12.2362C21.8566 11.5478 21.2365 10.9832 20.5084 10.593C19.7802 10.2027 18.9667 9.99902 18.1406 10H16.8806C16.4724 8.39249 15.5747 6.95158 14.3117 5.87666C13.0486 4.80173 11.4827 4.14593 9.83062 4M5.14062 5C3.57869 5.86364 2.35043 7.22478 1.6512 8.86691C0.951984 10.509 0.821969 12.3378 1.28184 14.0623C1.74172 15.7869 2.76507 17.3081 4.1891 18.384C5.61313 19.4599 7.35606 20.0288 9.14062 20H18.1406C18.7204 19.9993 19.2956 19.8978 19.8406 19.7M1.14062 1L23.1406 23" stroke="#101828" stroke-width="2" stroke-linecap="round" stroke-linejoin="round"/>
</svg>
