<svg width="20" height="22" viewBox="0 0 20 22" fill="none" xmlns="http://www.w3.org/2000/svg">
<path d="M1.00586 5.00305H3.00586M3.00586 5.00305H19.0059M3.00586 5.00305V19.0031C3.00586 19.5335 3.21657 20.0422 3.59165 20.4173C3.96672 20.7923 4.47543 21.0031 5.00586 21.0031H15.0059C15.5363 21.0031 16.045 20.7923 16.4201 20.4173C16.7951 20.0422 17.0059 19.5335 17.0059 19.0031V5.00305H3.00586ZM6.00586 5.00305V3.00305C6.00586 2.47262 6.21657 1.96391 6.59165 1.58884C6.96672 1.21377 7.47543 1.00305 8.00586 1.00305H12.0059C12.5363 1.00305 13.045 1.21377 13.4201 1.58884C13.7951 1.96391 14.0059 2.47262 14.0059 3.00305V5.00305" stroke="#101828" stroke-width="2" stroke-linecap="round" stroke-linejoin="round"/>
</svg>
