<svg width="24" height="23" viewBox="0 0 24 23" fill="none" xmlns="http://www.w3.org/2000/svg">
<path d="M22.4409 7.00305V1.00305M22.4409 1.00305H16.4409M22.4409 1.00305L15.4409 8.00305M21.4409 16.9231V19.9231C21.442 20.2016 21.3849 20.4772 21.2734 20.7324C21.1618 20.9876 20.9982 21.2166 20.7929 21.4049C20.5877 21.5932 20.3454 21.7365 20.0816 21.8258C19.8178 21.915 19.5382 21.9481 19.2609 21.9231C16.1837 21.5887 13.2278 20.5372 10.6309 18.8531C8.21468 17.3177 6.16619 15.2692 4.63085 12.8531C2.94083 10.2443 1.88909 7.27405 1.56085 4.18305C1.53586 3.90652 1.56873 3.62781 1.65735 3.36468C1.74598 3.10154 1.88842 2.85974 2.07562 2.65467C2.26281 2.4496 2.49066 2.28576 2.74464 2.17357C2.99863 2.06139 3.27319 2.00331 3.55085 2.00305H6.55085C7.03616 1.99828 7.50664 2.17013 7.87461 2.48658C8.24258 2.80304 8.48293 3.2425 8.55085 3.72305C8.67747 4.68312 8.9123 5.62578 9.25085 6.53305C9.38539 6.89098 9.41451 7.27997 9.33476 7.65393C9.255 8.0279 9.06971 8.37116 8.80085 8.64305L7.53085 9.91305C8.95441 12.4166 11.0273 14.4895 13.5309 15.9131L14.8009 14.6431C15.0727 14.3742 15.416 14.1889 15.79 14.1091C16.1639 14.0294 16.5529 14.0585 16.9109 14.1931C17.8181 14.5316 18.7608 14.7664 19.7209 14.8931C20.2066 14.9616 20.6503 15.2063 20.9674 15.5805C21.2845 15.9548 21.453 16.4326 21.4409 16.9231Z" stroke="#101828" stroke-width="2" stroke-linecap="round" stroke-linejoin="round"/>
</svg>
