<svg width="20" height="23" viewBox="0 0 20 23" fill="none" xmlns="http://www.w3.org/2000/svg">
<path d="M14.5 8.401L5.5 3.211M1.27 5.961L10 11.011L18.73 5.961M10 21.081V11.001M19 15.001V7.001C18.9996 6.65028 18.9071 6.30581 18.7315 6.00216C18.556 5.69852 18.3037 5.44636 18 5.271L11 1.271C10.696 1.09546 10.3511 1.00305 10 1.00305C9.64893 1.00305 9.30404 1.09546 9 1.271L2 5.271C1.69626 5.44636 1.44398 5.69852 1.26846 6.00216C1.09294 6.30581 1.00036 6.65028 1 7.001V15.001C1.00036 15.3517 1.09294 15.6962 1.26846 15.9998C1.44398 16.3035 1.69626 16.5556 2 16.731L9 20.731C9.30404 20.9065 9.64893 20.999 10 20.999C10.3511 20.999 10.696 20.9065 11 20.731L18 16.731C18.3037 16.5556 18.556 16.3035 18.7315 15.9998C18.9071 15.6962 18.9996 15.3517 19 15.001Z" stroke="#101828" stroke-width="2" stroke-linecap="round" stroke-linejoin="round"/>
</svg>
