<svg width="21" height="20" viewBox="0 0 21 20" fill="none" xmlns="http://www.w3.org/2000/svg">
<path d="M13.9102 16C13.9102 17.6569 15.2533 19 16.9102 19C18.567 19 19.9102 17.6569 19.9102 16C19.9102 14.3431 18.567 13 16.9102 13C15.2533 13 13.9102 14.3431 13.9102 16ZM13.9102 16C11.5232 16 9.23402 15.0518 7.5462 13.364C5.85837 11.6761 4.91016 9.38695 4.91016 7M4.91016 7C6.56701 7 7.91016 5.65685 7.91016 4C7.91016 2.34315 6.56701 1 4.91016 1C3.2533 1 1.91016 2.34315 1.91016 4C1.91016 5.65685 3.2533 7 4.91016 7ZM4.91016 7V19" stroke="#101828" stroke-width="2" stroke-linecap="round" stroke-linejoin="round"/>
</svg>
