<svg width="25" height="18" viewBox="0 0 25 18" fill="none" xmlns="http://www.w3.org/2000/svg">
<path d="M22.6968 3.42305C22.578 2.94846 22.3361 2.51362 21.9955 2.16246C21.6548 1.81129 21.2276 1.55624 20.7568 1.42305C19.0368 1.00305 12.1568 1.00305 12.1568 1.00305C12.1568 1.00305 5.27682 1.00305 3.55682 1.46305C3.08607 1.59624 2.6588 1.85129 2.31817 2.20246C1.97754 2.55362 1.73561 2.98846 1.61682 3.46305C1.30204 5.20861 1.14806 6.97936 1.15682 8.75305C1.1456 10.5401 1.29959 12.3244 1.61682 14.0831C1.74778 14.5429 1.99513 14.9612 2.33497 15.2975C2.6748 15.6339 3.09564 15.8769 3.55682 16.0031C5.27682 16.4631 12.1568 16.4631 12.1568 16.4631C12.1568 16.4631 19.0368 16.4631 20.7568 16.0031C21.2276 15.8699 21.6548 15.6148 21.9955 15.2636C22.3361 14.9125 22.578 14.4776 22.6968 14.0031C23.0092 12.2706 23.1631 10.5134 23.1568 8.75305C23.168 6.96601 23.0141 5.18175 22.6968 3.42305Z" stroke="#101828" stroke-width="2" stroke-linecap="round" stroke-linejoin="round"/>
<path d="M9.90682 12.0231L15.6568 8.75305L9.90682 5.48305V12.0231Z" stroke="#101828" stroke-width="2" stroke-linecap="round" stroke-linejoin="round"/>
</svg>
