<svg width="23" height="21" viewBox="0 0 23 21" fill="none" xmlns="http://www.w3.org/2000/svg">
<path d="M9.74388 1.9658L1.27388 16.1058C1.09925 16.4082 1.00685 16.7511 1.00587 17.1003C1.00489 17.4495 1.09537 17.7929 1.2683 18.0963C1.44124 18.3997 1.6906 18.6525 1.99159 18.8296C2.29257 19.0068 2.63468 19.102 2.98388 19.1058H19.9239C20.2731 19.102 20.6152 19.0068 20.9162 18.8296C21.2172 18.6525 21.4665 18.3997 21.6395 18.0963C21.8124 17.7929 21.9029 17.4495 21.9019 17.1003C21.9009 16.7511 21.8085 16.4082 21.6339 16.1058L13.1639 1.9658C12.9856 1.6719 12.7346 1.42892 12.4351 1.26028C12.1355 1.09164 11.7976 1.00305 11.4539 1.00305C11.1101 1.00305 10.7722 1.09164 10.4727 1.26028C10.1732 1.42892 9.92215 1.6719 9.74388 1.9658V1.9658Z" stroke="#101828" stroke-width="2" stroke-linecap="round" stroke-linejoin="round"/>
</svg>
