<svg width="24" height="20" viewBox="0 0 24 20" fill="none" xmlns="http://www.w3.org/2000/svg">
<path d="M23 1.01311C22.0424 1.68858 20.9821 2.20522 19.86 2.54311C19.2577 1.85062 18.4573 1.3598 17.567 1.13703C16.6767 0.914268 15.7395 0.970303 14.8821 1.29756C14.0247 1.62482 13.2884 2.20751 12.773 2.96682C12.2575 3.72614 11.9877 4.62544 12 5.54311V6.54311C10.2426 6.58868 8.50127 6.19892 6.93101 5.40855C5.36074 4.61819 4.01032 3.45174 3 2.01311C3 2.01311 -1 11.0131 8 15.0131C5.94053 16.4111 3.48716 17.112 1 17.0131C10 22.0131 21 17.0131 21 5.51311C20.9991 5.23456 20.9723 4.9567 20.92 4.68311C21.9406 3.6766 22.6608 2.40582 23 1.01311Z" stroke="#101828" stroke-width="2" stroke-linecap="round" stroke-linejoin="round"/>
</svg>
