<svg width="20" height="22" viewBox="0 0 20 22" fill="none" xmlns="http://www.w3.org/2000/svg">
<path d="M6.59 12.5131L13.42 16.4931M13.41 5.51305L6.59 9.49305M19 4.00305C19 5.65991 17.6569 7.00305 16 7.00305C14.3431 7.00305 13 5.65991 13 4.00305C13 2.3462 14.3431 1.00305 16 1.00305C17.6569 1.00305 19 2.3462 19 4.00305ZM7 11.0031C7 12.6599 5.65685 14.0031 4 14.0031C2.34315 14.0031 1 12.6599 1 11.0031C1 9.3462 2.34315 8.00305 4 8.00305C5.65685 8.00305 7 9.3462 7 11.0031ZM19 18.0031C19 19.6599 17.6569 21.0031 16 21.0031C14.3431 21.0031 13 19.6599 13 18.0031C13 16.3462 14.3431 15.0031 16 15.0031C17.6569 15.0031 19 16.3462 19 18.0031Z" stroke="#101828" stroke-width="2" stroke-linecap="round" stroke-linejoin="round"/>
</svg>
