<svg width="21" height="21" viewBox="0 0 21 21" fill="none" xmlns="http://www.w3.org/2000/svg">
<path d="M12.7013 5.30669C12.5181 5.49362 12.4155 5.74494 12.4155 6.00669C12.4155 6.26845 12.5181 6.51976 12.7013 6.70669L14.3013 8.30669C14.4882 8.48992 14.7396 8.59255 15.0013 8.59255C15.2631 8.59255 15.5144 8.48992 15.7013 8.30669L19.4713 4.53669C19.9742 5.64788 20.1264 6.88593 19.9078 8.08584C19.6892 9.28575 19.11 10.3905 18.2476 11.253C17.3852 12.1154 16.2804 12.6945 15.0805 12.9132C13.8806 13.1318 12.6425 12.9795 11.5313 12.4767L4.62132 19.3867C4.2235 19.7845 3.68393 20.008 3.12132 20.008C2.55871 20.008 2.01914 19.7845 1.62132 19.3867C1.2235 18.9889 1 18.4493 1 17.8867C1 17.3241 1.2235 16.7845 1.62132 16.3867L8.53132 9.47669C8.02848 8.3655 7.87624 7.12746 8.09486 5.92755C8.31349 4.72764 8.89261 3.62285 9.75504 2.76042C10.6175 1.89798 11.7223 1.31886 12.9222 1.10024C14.1221 0.881609 15.3601 1.03386 16.4713 1.53669L12.7113 5.29669L12.7013 5.30669Z" stroke="#101828" stroke-width="2" stroke-linecap="round" stroke-linejoin="round"/>
</svg>
