<svg width="24" height="23" viewBox="0 0 24 23" fill="none" xmlns="http://www.w3.org/2000/svg">
<path d="M15.6635 2.00305V8.00305M15.6635 8.00305H21.6635M15.6635 8.00305L22.6635 1.00305M21.6635 16.9231V19.9231C21.6646 20.2016 21.6076 20.4772 21.496 20.7324C21.3844 20.9876 21.2208 21.2166 21.0156 21.4049C20.8104 21.5932 20.5681 21.7365 20.3043 21.8258C20.0404 21.915 19.7609 21.9481 19.4835 21.9231C16.4063 21.5887 13.4505 20.5372 10.8535 18.8531C8.43734 17.3177 6.38884 15.2692 4.85351 12.8531C3.16349 10.2443 2.11175 7.27405 1.78351 4.18305C1.75852 3.90652 1.79138 3.62781 1.88001 3.36468C1.96863 3.10154 2.11108 2.85974 2.29827 2.65467C2.48547 2.4496 2.71331 2.28576 2.9673 2.17357C3.22128 2.06139 3.49585 2.00331 3.77351 2.00305H6.77351C7.25881 1.99828 7.7293 2.17013 8.09727 2.48658C8.46524 2.80304 8.70558 3.2425 8.77351 3.72305C8.90013 4.68312 9.13496 5.62578 9.47351 6.53305C9.60805 6.89098 9.63717 7.27997 9.55741 7.65393C9.47766 8.0279 9.29237 8.37116 9.02351 8.64305L7.75351 9.91305C9.17706 12.4166 11.25 14.4895 13.7535 15.9131L15.0235 14.6431C15.2954 14.3742 15.6387 14.1889 16.0126 14.1091C16.3866 14.0294 16.7756 14.0585 17.1335 14.1931C18.0408 14.5316 18.9834 14.7664 19.9435 14.8931C20.4293 14.9616 20.8729 15.2063 21.19 15.5805C21.5072 15.9548 21.6757 16.4326 21.6635 16.9231Z" stroke="#101828" stroke-width="2" stroke-linecap="round" stroke-linejoin="round"/>
</svg>
