<svg width="24" height="23" viewBox="0 0 24 23" fill="none" xmlns="http://www.w3.org/2000/svg">
<path d="M1 1.00305H5L7.68 14.3931C7.77144 14.8534 8.02191 15.267 8.38755 15.5613C8.75318 15.8557 9.2107 16.012 9.68 16.0031H19.4C19.8693 16.012 20.3268 15.8557 20.6925 15.5613C21.0581 15.267 21.3086 14.8534 21.4 14.3931L23 6.00305H6M10 21.0031C10 21.5553 9.55228 22.0031 9 22.0031C8.44772 22.0031 8 21.5553 8 21.0031C8 20.4508 8.44772 20.0031 9 20.0031C9.55228 20.0031 10 20.4508 10 21.0031ZM21 21.0031C21 21.5553 20.5523 22.0031 20 22.0031C19.4477 22.0031 19 21.5553 19 21.0031C19 20.4508 19.4477 20.0031 20 20.0031C20.5523 20.0031 21 20.4508 21 21.0031Z" stroke="#101828" stroke-width="2" stroke-linecap="round" stroke-linejoin="round"/>
</svg>
