<svg width="24" height="24" viewBox="0 0 24 24" fill="none" xmlns="http://www.w3.org/2000/svg">
<g clip-path="url(#clip0_197_43651)">
<path d="M21.4403 11.0531L12.2503 20.2431C11.1244 21.3689 9.59747 22.0014 8.00529 22.0014C6.41311 22.0014 4.88613 21.3689 3.76029 20.2431C2.63445 19.1172 2.00195 17.5902 2.00195 15.9981C2.00195 14.4059 2.63445 12.8789 3.76029 11.7531L12.9503 2.56306C13.7009 1.8125 14.7188 1.39084 15.7803 1.39084C16.8417 1.39084 17.8597 1.8125 18.6103 2.56306C19.3609 3.31363 19.7825 4.33161 19.7825 5.39306C19.7825 6.45452 19.3609 7.4725 18.6103 8.22306L9.41029 17.4131C9.03501 17.7883 8.52602 17.9992 7.99529 17.9992C7.46456 17.9992 6.95557 17.7883 6.58029 17.4131C6.20501 17.0378 5.99418 16.5288 5.99418 15.9981C5.99418 15.4673 6.20501 14.9583 6.58029 14.5831L15.0703 6.10306" stroke="#101828" stroke-width="2" stroke-linecap="round" stroke-linejoin="round"/>
</g>
<defs>
<clipPath id="clip0_197_43651">
<rect width="24" height="24" fill="white" transform="translate(0 0.00305176)"/>
</clipPath>
</defs>
</svg>
