<svg width="24" height="24" viewBox="0 0 24 24" fill="none" xmlns="http://www.w3.org/2000/svg">
<path d="M6 9.00305V2.00305H18V9.00305M6 18.0031H4C3.46957 18.0031 2.96086 17.7923 2.58579 17.4173C2.21071 17.0422 2 16.5335 2 16.0031V11.0031C2 10.4726 2.21071 9.96391 2.58579 9.58884C2.96086 9.21377 3.46957 9.00305 4 9.00305H20C20.5304 9.00305 21.0391 9.21377 21.4142 9.58884C21.7893 9.96391 22 10.4726 22 11.0031V16.0031C22 16.5335 21.7893 17.0422 21.4142 17.4173C21.0391 17.7923 20.5304 18.0031 20 18.0031H18M6 14.0031H18V22.0031H6V14.0031Z" stroke="#101828" stroke-width="2" stroke-linecap="round" stroke-linejoin="round"/>
</svg>
