<svg width="24" height="24" viewBox="0 0 24 24" fill="none" xmlns="http://www.w3.org/2000/svg">
<g clip-path="url(#clip0_26_25990)">
<path d="M0.996094 4.00307V10.0031M0.996094 10.0031H6.99609M0.996094 10.0031L5.63609 5.64307C6.71084 4.56778 8.04047 3.78227 9.5009 3.35984C10.9613 2.93741 12.505 2.89182 13.9878 3.22732C15.4706 3.56283 16.8443 4.2685 17.9806 5.27848C19.117 6.28847 19.9789 7.56985 20.4861 9.00307M22.9961 20.0031V14.0031M22.9961 14.0031H16.9961M22.9961 14.0031L18.3561 18.3631C17.2813 19.4384 15.9517 20.2239 14.4913 20.6463C13.0308 21.0687 11.4872 21.1143 10.0044 20.7788C8.52156 20.4433 7.14789 19.7376 6.01156 18.7276C4.87523 17.7177 4.01326 16.4363 3.50609 15.0031" stroke="#101828" stroke-width="2" stroke-linecap="round" stroke-linejoin="round"/>
</g>
<defs>
<clipPath id="clip0_26_25990">
<rect width="24" height="24" fill="white" transform="translate(-0.00390625 0.00305176)"/>
</clipPath>
</defs>
</svg>
