<svg width="24" height="24" viewBox="0 0 24 24" fill="none" xmlns="http://www.w3.org/2000/svg">
<g clip-path="url(#clip0_26_25991)">
<path d="M22.9961 4.00307V10.0031M22.9961 10.0031H16.9961M22.9961 10.0031L18.3561 5.64307C17.2813 4.56778 15.9517 3.78227 14.4913 3.35984C13.0308 2.93741 11.4872 2.89182 10.0044 3.22732C8.52156 3.56283 7.14789 4.2685 6.01156 5.27848C4.87523 6.28847 4.01326 7.56985 3.50609 9.00307M0.996094 20.0031V14.0031M0.996094 14.0031H6.99609M0.996094 14.0031L5.63609 18.3631C6.71084 19.4384 8.04047 20.2239 9.5009 20.6463C10.9613 21.0687 12.505 21.1143 13.9878 20.7788C15.4706 20.4433 16.8443 19.7376 17.9806 18.7276C19.117 17.7177 19.9789 16.4363 20.4861 15.0031" stroke="#101828" stroke-width="2" stroke-linecap="round" stroke-linejoin="round"/>
</g>
<defs>
<clipPath id="clip0_26_25991">
<rect width="24" height="24" fill="white" transform="translate(-0.00390625 0.00305176)"/>
</clipPath>
</defs>
</svg>
