<svg width="24" height="24" viewBox="0 0 24 24" fill="none" xmlns="http://www.w3.org/2000/svg">
<g clip-path="url(#clip0_199_48784)">
<path d="M11.9941 15.0031C13.651 15.0031 14.9941 13.6599 14.9941 12.0031C14.9941 10.3462 13.651 9.00305 11.9941 9.00305C10.3373 9.00305 8.99414 10.3462 8.99414 12.0031C8.99414 13.6599 10.3373 15.0031 11.9941 15.0031Z" stroke="#101828" stroke-width="2" stroke-linecap="round" stroke-linejoin="round"/>
<path d="M19.3941 15.0031C19.261 15.3047 19.2213 15.6392 19.2801 15.9636C19.339 16.288 19.4936 16.5874 19.7241 16.8231L19.7841 16.8831C19.9701 17.0688 20.1176 17.2894 20.2183 17.5322C20.3189 17.775 20.3707 18.0352 20.3707 18.2981C20.3707 18.5609 20.3189 18.8211 20.2183 19.0639C20.1176 19.3067 19.9701 19.5273 19.7841 19.7131C19.5984 19.899 19.3778 20.0465 19.135 20.1472C18.8922 20.2478 18.632 20.2996 18.3691 20.2996C18.1063 20.2996 17.8461 20.2478 17.6033 20.1472C17.3605 20.0465 17.1399 19.899 16.9541 19.7131L16.8941 19.6531C16.6585 19.4225 16.3591 19.2679 16.0347 19.209C15.7103 19.1502 15.3758 19.1899 15.0741 19.3231C14.7784 19.4498 14.5261 19.6603 14.3484 19.9286C14.1708 20.1969 14.0754 20.5113 14.0741 20.8331V21.0031C14.0741 21.5335 13.8634 22.0422 13.4884 22.4173C13.1133 22.7923 12.6046 23.0031 12.0741 23.0031C11.5437 23.0031 11.035 22.7923 10.6599 22.4173C10.2849 22.0422 10.0741 21.5335 10.0741 21.0031V20.9131C10.0664 20.5821 9.95926 20.261 9.76665 19.9918C9.57404 19.7225 9.30488 19.5173 8.99414 19.4031C8.69252 19.2699 8.35795 19.2302 8.03355 19.289C7.70916 19.3479 7.40982 19.5025 7.17414 19.7331L7.11414 19.7931C6.92839 19.979 6.70782 20.1265 6.46502 20.2272C6.22222 20.3278 5.96197 20.3796 5.69914 20.3796C5.43631 20.3796 5.17606 20.3278 4.93326 20.2272C4.69046 20.1265 4.46989 19.979 4.28414 19.7931C4.09819 19.6073 3.95067 19.3867 3.85002 19.1439C3.74937 18.9011 3.69757 18.6409 3.69757 18.3781C3.69757 18.1152 3.74937 17.855 3.85002 17.6122C3.95067 17.3694 4.09819 17.1488 4.28414 16.9631L4.34414 16.9031C4.57468 16.6674 4.72933 16.368 4.78815 16.0436C4.84696 15.7192 4.80726 15.3847 4.67414 15.0831C4.54738 14.7873 4.3369 14.535 4.06861 14.3574C3.80032 14.1797 3.48593 14.0843 3.16414 14.0831H2.99414C2.46371 14.0831 1.955 13.8723 1.57993 13.4973C1.20485 13.1222 0.994141 12.6135 0.994141 12.0831C0.994141 11.5526 1.20485 11.0439 1.57993 10.6688C1.955 10.2938 2.46371 10.0831 2.99414 10.0831H3.08414C3.41513 10.0753 3.73615 9.96817 4.00544 9.77556C4.27473 9.58295 4.47986 9.31379 4.59414 9.00305C4.72726 8.70144 4.76696 8.36686 4.70815 8.04246C4.64933 7.71807 4.49468 7.41873 4.26414 7.18305L4.20414 7.12305C4.01819 6.93731 3.87067 6.71673 3.77002 6.47393C3.66937 6.23114 3.61757 5.97088 3.61757 5.70805C3.61757 5.44522 3.66937 5.18497 3.77002 4.94217C3.87067 4.69937 4.01819 4.4788 4.20414 4.29305C4.38989 4.1071 4.61046 3.95958 4.85326 3.85893C5.09606 3.75828 5.35631 3.70648 5.61914 3.70648C5.88197 3.70648 6.14223 3.75828 6.38502 3.85893C6.62782 3.95958 6.84839 4.1071 7.03414 4.29305L7.09414 4.35305C7.32982 4.58359 7.62916 4.73824 7.95355 4.79706C8.27795 4.85588 8.61252 4.81617 8.91414 4.68305H8.99414C9.28991 4.55629 9.54216 4.34581 9.71983 4.07752C9.89751 3.80923 9.99286 3.49484 9.99414 3.17305V3.00305C9.99414 2.47262 10.2049 1.96391 10.5799 1.58884C10.955 1.21377 11.4637 1.00305 11.9941 1.00305C12.5246 1.00305 13.0333 1.21377 13.4084 1.58884C13.7834 1.96391 13.9941 2.47262 13.9941 3.00305V3.09305C13.9954 3.41484 14.0908 3.72923 14.2684 3.99752C14.4461 4.26581 14.6984 4.47629 14.9941 4.60305C15.2958 4.73617 15.6303 4.77588 15.9547 4.71706C16.2791 4.65824 16.5785 4.50359 16.8141 4.27305L16.8741 4.21305C17.0599 4.0271 17.2805 3.87958 17.5233 3.77893C17.7661 3.67828 18.0263 3.62648 18.2891 3.62648C18.552 3.62648 18.8122 3.67828 19.055 3.77893C19.2978 3.87958 19.5184 4.0271 19.7041 4.21305C19.8901 4.3988 20.0376 4.61938 20.1383 4.86217C20.2389 5.10497 20.2907 5.36522 20.2907 5.62805C20.2907 5.89088 20.2389 6.15114 20.1383 6.39393C20.0376 6.63673 19.8901 6.85731 19.7041 7.04305L19.6441 7.10305C19.4136 7.33873 19.259 7.63807 19.2001 7.96246C19.1413 8.28686 19.181 8.62144 19.3141 8.92305V9.00305C19.4409 9.29882 19.6514 9.55107 19.9197 9.72874C20.188 9.90642 20.5024 10.0018 20.8241 10.0031H20.9941C21.5246 10.0031 22.0333 10.2138 22.4084 10.5888C22.7834 10.9639 22.9941 11.4726 22.9941 12.0031C22.9941 12.5335 22.7834 13.0422 22.4084 13.4173C22.0333 13.7923 21.5246 14.0031 20.9941 14.0031H20.9041C20.5824 14.0043 20.268 14.0997 19.9997 14.2774C19.7314 14.455 19.5209 14.7073 19.3941 15.0031Z" stroke="#101828" stroke-width="2" stroke-linecap="round" stroke-linejoin="round"/>
</g>
<defs>
<clipPath id="clip0_199_48784">
<rect width="24" height="24" fill="white" transform="translate(-0.00585938 0.00305176)"/>
</clipPath>
</defs>
</svg>
