<svg width="24" height="24" viewBox="0 0 24 24" fill="none" xmlns="http://www.w3.org/2000/svg">
<path d="M3 6.00305L6 2.00305H18L21 6.00305M3 6.00305V20.0031C3 20.5335 3.21071 21.0422 3.58579 21.4173C3.96086 21.7923 4.46957 22.0031 5 22.0031H19C19.5304 22.0031 20.0391 21.7923 20.4142 21.4173C20.7893 21.0422 21 20.5335 21 20.0031V6.00305M3 6.00305H21M16 10.0031C16 11.0639 15.5786 12.0813 14.8284 12.8315C14.0783 13.5816 13.0609 14.0031 12 14.0031C10.9391 14.0031 9.92172 13.5816 9.17157 12.8315C8.42143 12.0813 8 11.0639 8 10.0031" stroke="#101828" stroke-width="2" stroke-linecap="round" stroke-linejoin="round"/>
</svg>
