<svg width="25" height="24" viewBox="0 0 25 24" fill="none" xmlns="http://www.w3.org/2000/svg">
<path d="M17.1709 2.00305H19.8409C20.4069 1.99304 20.9568 2.19118 21.3863 2.55987C21.8159 2.92855 22.0951 3.44211 22.1709 4.00305V11.003C22.0951 11.564 21.8159 12.0775 21.3863 12.4462C20.9568 12.8149 20.4069 13.0131 19.8409 13.003H17.1709M10.1709 15.003V19.003C10.1709 19.7987 10.487 20.5618 11.0496 21.1244C11.6122 21.687 12.3753 22.003 13.1709 22.003L17.1709 13.003V2.00305H5.89093C5.4086 1.99759 4.94055 2.16664 4.57302 2.47904C4.2055 2.79144 3.96325 3.22614 3.89093 3.70305L2.51093 12.703C2.46742 12.9897 2.48675 13.2824 2.56759 13.5608C2.64842 13.8392 2.78883 14.0968 2.97907 14.3155C3.16931 14.5343 3.40485 14.7091 3.66936 14.8278C3.93387 14.9465 4.22102 15.0063 4.51093 15.003H10.1709Z" stroke="#101828" stroke-width="2" stroke-linecap="round" stroke-linejoin="round"/>
</svg>
