<svg width="24" height="24" viewBox="0 0 24 24" fill="none" xmlns="http://www.w3.org/2000/svg">
<path d="M3.00586 6.00305H5.00586M5.00586 6.00305H21.0059M5.00586 6.00305V20.0031C5.00586 20.5335 5.21657 21.0422 5.59165 21.4173C5.96672 21.7923 6.47543 22.0031 7.00586 22.0031H17.0059C17.5363 22.0031 18.045 21.7923 18.4201 21.4173C18.7951 21.0422 19.0059 20.5335 19.0059 20.0031V6.00305H5.00586ZM8.00586 6.00305V4.00305C8.00586 3.47262 8.21657 2.96391 8.59165 2.58884C8.96672 2.21377 9.47543 2.00305 10.0059 2.00305H14.0059C14.5363 2.00305 15.045 2.21377 15.4201 2.58884C15.7951 2.96391 16.0059 3.47262 16.0059 4.00305V6.00305M10.0059 11.0031V17.0031M14.0059 11.0031V17.0031" stroke="#101828" stroke-width="2" stroke-linecap="round" stroke-linejoin="round"/>
</svg>
