<svg width="24" height="24" viewBox="0 0 24 24" fill="none" xmlns="http://www.w3.org/2000/svg">
<g clip-path="url(#clip0_26_25710)">
<path d="M15.9995 16.0031L11.9995 12.0031M11.9995 12.0031L7.99947 16.0031M11.9995 12.0031V21.0031M20.3895 18.3931C21.3648 17.8613 22.1353 17.0199 22.5793 16.0017C23.0234 14.9834 23.1157 13.8463 22.8417 12.7697C22.5677 11.6932 21.943 10.7386 21.0661 10.0565C20.1893 9.37443 19.1103 9.00378 17.9995 9.00305H16.7395C16.4368 7.83229 15.8726 6.74539 15.0894 5.82404C14.3062 4.9027 13.3243 4.1709 12.2176 3.68366C11.1108 3.19642 9.90802 2.96641 8.69959 3.01093C7.49116 3.05546 6.30854 3.37335 5.24065 3.94072C4.17276 4.50808 3.24738 5.31015 2.53409 6.28663C1.8208 7.26311 1.33816 8.38859 1.12245 9.57845C0.906742 10.7683 0.963577 11.9916 1.28869 13.1563C1.61379 14.321 2.19871 15.3969 2.99947 16.3031" stroke="#101828" stroke-width="2" stroke-linecap="round" stroke-linejoin="round"/>
</g>
<defs>
<clipPath id="clip0_26_25710">
<rect width="24" height="24" fill="white" transform="translate(0 0.00305176)"/>
</clipPath>
</defs>
</svg>
