<svg width="24" height="24" viewBox="0 0 24 24" fill="none" xmlns="http://www.w3.org/2000/svg">
<path d="M17 21.0031V19.0031C17 17.9422 16.5786 16.9248 15.8284 16.1746C15.0783 15.4245 14.0609 15.0031 13 15.0031H5C3.93913 15.0031 2.92172 15.4245 2.17157 16.1746C1.42143 16.9248 1 17.9422 1 19.0031V21.0031M23 21.0031V19.0031C22.9993 18.1168 22.7044 17.2558 22.1614 16.5554C21.6184 15.8549 20.8581 15.3546 20 15.1331M16 3.13305C16.8604 3.35335 17.623 3.85375 18.1676 4.55536C18.7122 5.25697 19.0078 6.11988 19.0078 7.00805C19.0078 7.89622 18.7122 8.75913 18.1676 9.46074C17.623 10.1624 16.8604 10.6628 16 10.8831M13 7.00305C13 9.21219 11.2091 11.0031 9 11.0031C6.79086 11.0031 5 9.21219 5 7.00305C5 4.79391 6.79086 3.00305 9 3.00305C11.2091 3.00305 13 4.79391 13 7.00305Z" stroke="#101828" stroke-width="2" stroke-linecap="round" stroke-linejoin="round"/>
</svg>
