<svg width="24" height="24" viewBox="0 0 24 24" fill="none" xmlns="http://www.w3.org/2000/svg">
<path d="M16 21.0031V19.0031C16 17.9422 15.5786 16.9248 14.8284 16.1746C14.0783 15.4245 13.0609 15.0031 12 15.0031H5C3.93913 15.0031 2.92172 15.4245 2.17157 16.1746C1.42143 16.9248 1 17.9422 1 19.0031V21.0031M17 11.0031L19 13.0031L23 9.00305M12.5 7.00305C12.5 9.21219 10.7091 11.0031 8.5 11.0031C6.29086 11.0031 4.5 9.21219 4.5 7.00305C4.5 4.79391 6.29086 3.00305 8.5 3.00305C10.7091 3.00305 12.5 4.79391 12.5 7.00305Z" stroke="#101828" stroke-width="2" stroke-linecap="round" stroke-linejoin="round"/>
</svg>
