<svg width="12" height="18" viewBox="0 0 12 18" fill="none" xmlns="http://www.w3.org/2000/svg">
<path d="M11.1113 9.19922C11.1113 8.7793 10.9648 8.4375 10.623 8.11523L3.13281 0.791016C2.87891 0.527344 2.56641 0.400391 2.18555 0.400391C1.43359 0.400391 0.818359 1.00586 0.818359 1.75781C0.818359 2.12891 0.974609 2.4707 1.24805 2.74414L7.88867 9.18945L1.24805 15.6543C0.974609 15.918 0.818359 16.2598 0.818359 16.6406C0.818359 17.3926 1.43359 17.998 2.18555 17.998C2.55664 17.998 2.87891 17.8711 3.13281 17.6074L10.623 10.2832C10.9648 9.96094 11.1113 9.60938 11.1113 9.19922Z" fill="#3A3A3A"/>
</svg>
