<svg width="12" height="18" viewBox="0 0 12 18" fill="none" xmlns="http://www.w3.org/2000/svg">
<path d="M0.888672 9.19922C0.888672 8.7793 1.03516 8.4375 1.37695 8.11523L8.86719 0.791016C9.12109 0.527344 9.43359 0.400391 9.81445 0.400391C10.5664 0.400391 11.1816 1.00586 11.1816 1.75781C11.1816 2.12891 11.0254 2.4707 10.752 2.74414L4.11133 9.18945L10.752 15.6543C11.0254 15.918 11.1816 16.2598 11.1816 16.6406C11.1816 17.3926 10.5664 17.998 9.81445 17.998C9.44336 17.998 9.12109 17.8711 8.86719 17.6074L1.37695 10.2832C1.03516 9.96094 0.888672 9.60938 0.888672 9.19922Z" fill="#3A3A3A"/>
</svg>
