<svg width="11" height="10" viewBox="0 0 11 10" fill="none" xmlns="http://www.w3.org/2000/svg">
<path d="M0.990234 9.03125C0.791016 9.23047 0.785156 9.57031 0.990234 9.76953C1.19531 9.96875 1.53516 9.96875 1.73438 9.76953L5.48438 6.01953L9.23438 9.76953C9.43359 9.96875 9.7793 9.97461 9.97852 9.76953C10.1777 9.56445 10.1777 9.23047 9.97852 9.03125L6.22852 5.27539L9.97852 1.52539C10.1777 1.32617 10.1836 0.986328 9.97852 0.787109C9.77344 0.582031 9.43359 0.582031 9.23438 0.787109L5.48438 4.53711L1.73438 0.787109C1.53516 0.582031 1.18945 0.576172 0.990234 0.787109C0.791016 0.992188 0.791016 1.32617 0.990234 1.52539L4.74023 5.27539L0.990234 9.03125Z" fill="white"/>
</svg>
