<svg width="9" height="9" viewBox="0 0 9 9" fill="none" xmlns="http://www.w3.org/2000/svg">
<path d="M0.769531 7.12012C0.530273 7.35938 0.525391 7.78418 0.774414 8.0332C1.02832 8.28223 1.45312 8.27734 1.6875 8.04297L4.57812 5.15234L7.46387 8.03809C7.70801 8.28223 8.12793 8.28223 8.37695 8.0332C8.62598 7.7793 8.62598 7.36426 8.38184 7.12012L5.49609 4.23438L8.38184 1.34375C8.62598 1.09961 8.63086 0.679688 8.37695 0.430664C8.12793 0.181641 7.70801 0.181641 7.46387 0.425781L4.57812 3.31152L1.6875 0.425781C1.45312 0.186523 1.02344 0.176758 0.774414 0.430664C0.525391 0.679688 0.530273 1.10938 0.769531 1.34375L3.65527 4.23438L0.769531 7.12012Z" fill="#3A3A3A"/>
</svg>
